# xmcd
#
# Track frame offsets:
#       150
#       19207
#       38979
#       150868
#       168853
#       187790
#       207152
#       230894
#       279833
#
# Disc length: 4499 seconds
#
# Revision: 6
# Processed by: cddbd v1.5.2PL0 Copyright (c) Steve Scherf et al.
# Submitted via: MusiCat 1.1
#
DISCID=67119109
DTITLE=Fleetwood Mac - Live in Boston 6 Feb 1970
DYEAR=1970
DGENRE=
TTITLE0=World in Harmony
TTITLE1=Oh Well
TTITLE2=Rattlesnake Shake
TTITLE3=Stranger Blues
TTITLE4=Red Hot Mama
TTITLE5=Teenage Darling
TTITLE6=Keep A-knocking
TTITLE7=Jenny Jenny
TTITLE8=Encore Jam
EXTD=\n\n YEAR: 1970\nFM did 3 concerts at the Tea Party in Boston on 5,6 and 7 
EXTD=Feb 1970. The third night was commercially released, This is the second n
EXTD=ight
EXTT0=
EXTT1=
EXTT2=
EXTT3=
EXTT4=
EXTT5=
EXTT6=
EXTT7=
EXTT8=
PLAYORDER=
